inDegrees=yes
name=ik_Xsens_quaternion
DataType=double
version=3
OpenSimVersion=4.4-2022-07-23-0e9fedc
endheader
time	pelvis_tilt	pelvis_list	pelvis_rotation	pelvis_tx	pelvis_ty	pelvis_tz	hip_flexion_r	hip_adduction_r	hip_rotation_r	knee_angle_r	knee_angle_r_beta	ankle_angle_r	subtalar_angle_r	mtp_angle_r	hip_flexion_l	hip_adduction_l	hip_rotation_l	knee_angle_l	knee_angle_l_beta	ankle_angle_l	subtalar_angle_l	mtp_angle_l	lumbar_extension	lumbar_bending	lumbar_rotation	arm_flex_r	arm_add_r	arm_rot_r	elbow_flex_r	pro_sup_r	wrist_flex_r	wrist_dev_r	arm_flex_l	arm_add_l	arm_rot_l	elbow_flex_l	pro_sup_l	wrist_flex_l	wrist_dev_l
28.35	-8.181630914643838e-12	6.203306485575469e-13	1.676877403447695e-13	3.14065336746985e-20	0.93	4.279313828770965e-23	-1.427307463778056e-49	-1.479507952128687e-36	-2.945181262385759e-23	1.233669662774297e-05	2.153159748665565e-07	-4.732504104679854e-25	6.639590109052522e-23	-4.916307221751792e-21	1.99278414536195e-25	-1.468113758189193e-33	6.672655014350322e-31	1.233669662888481e-05	2.153159748864853e-07	1.646355225776176e-24	8.024889757186093e-22	-1.537351540184147e-20	-8.18163089371944e-12	6.203894783241951e-13	1.676877403447689e-13	1.664703284654916e-30	4.899049509149746e-26	-9.960995949017114e-27	1.234546057245981e-05	1.225891211939708e-05	-5.184269099089262e-17	-1.410375741282509e-17	5.227947258600927	15.18627535144968	-29.64841230133637	4.469730870045582	44.82385091710668	3.379299315224843e-17	2.779891099009756e-19
28.36666666666667	6.879030033438836e-28	6.008778239103127e-25	3.236756149640493e-27	-2.74340960813021e-24	0.93	-3.193705352368244e-24	-1.311287185927506e-35	-3.351502059248331e-19	-2.236766832283586e-35	2.169393133917198e-15	3.786305295725614e-17	8.780617818699761e-19	1.445782105577314e-22	-2.399968268160504e-22	-1.004275378023244e-21	4.775759403715053e-39	-3.723933818406767e-23	2.169592252350194e-15	3.78664533678631e-17	-1.813329801324282e-18	-7.667506950810029e-23	-3.675556484942647e-20	2.859853598187165e-28	-1.2202371203174e-22	5.115195192823472e-28	-7.827640375210797e-22	2.656675386151444e-17	1.266413659196243e-17	2.169351316386423e-15	2.169328218851601e-15	1.44667664572986e-23	1.565801454233926e-24	5.040530593984199	14.00583390388529	-30.12388407069663	4.324929031193969	44.82419818460973	-1.04661560935824e-22	3.361619381942669e-23
28.38333333333333	1.9103179775583e-26	-7.550242879098363e-24	-8.736318670974312e-26	2.199379372149149e-26	0.93	-2.603682873399817e-27	-4.984125539987298e-39	2.623445464813933e-22	2.690273616891867e-40	0	-5.286776782813074e-18	1.918597774609458e-16	7.567949367035124e-18	4.593290562568946e-22	-3.400421444610785e-23	-7.244781520296234e-44	2.360771553530161e-23	0	-5.286766510937411e-18	-3.662586387706453e-16	-1.163656225502021e-17	-3.286662898748436e-25	-2.72285892939894e-26	6.747666811888826e-24	1.91283291617519e-25	-1.294014415258312e-22	2.003058405076329e-15	-3.736989069537996e-16	0	0	1.29664325135923e-23	1.923589363863931e-23	4.852544731393249	12.80935024794333	-30.55696102454227	4.307594127807128	44.82454456571237	-1.158979473358876e-24	3.704740018066843e-23
28.4	-6.506778022122707e-27	-7.396765250355835e-21	-3.002460999137035e-26	4.060777617310143e-21	0.93	-1.131183412199852e-21	3.196038299462997e-36	-8.301314259316916e-21	-2.408576867656663e-44	0	-2.946987038977541e-17	-1.25938449990883e-16	2.951362852992182e-22	-4.72297767780139e-22	5.974859836174591e-19	-1.633087754291448e-36	-1.43900387298949e-18	0	-2.946974805279539e-17	-7.290966187064632e-17	-5.8169718020484e-22	-3.084277592141152e-20	2.400118582840389e-27	4.480261579777105e-18	-5.058804929533141e-27	-9.93851681736441e-22	7.460460826458056e-17	1.018825743880965e-17	0	0	1.030922013011146e-18	3.170589586073869e-19	4.703845920516939	11.64372121145127	-30.90959166910318	4.404999087470892	44.8248993771639	3.074632825973703e-19	-6.384530317754655e-19
28.41666666666667	-1.181594931975285e-25	1.31368585934963e-25	-4.687240137293961e-25	4.047839761460819e-18	0.93	1.972299488020487e-18	6.209811859678551e-26	-6.115862823322421e-25	4.256479027683419e-15	4.790668530969927e-14	8.915468787763795e-16	-1.544030141393266e-15	-1.272563109551257e-14	-9.366924703945874e-21	-1.54813219570453e-15	4.494894777969162e-15	-1.455121682579105e-15	0	9.506418483994845e-17	9.684429437309644e-15	-2.937435144067232e-14	8.010441921964318e-21	-9.759448960596073e-15	1.363406466785715e-14	-5.732022834673875e-15	-1.539739064094033e-15	-7.772007720237784e-15	-2.987196100807506e-15	0	0	-2.297946139293848e-21	6.784942242197277e-23	4.587030031820345	10.50584993900381	-31.24452859349936	4.513059403280516	44.82526471928477	1.288554071334079e-20	-4.688516036118722e-23
28.43333333333333	0	0	0	0	0.93	0	0	0	0	0	-1.173120847904881e-40	0	0	0	0	0	0	1.368627123124264e-38	-2.964095995069468e-41	0	0	0	0	0	0	0	0	0	0	1.842741228751005e-39	0	0	4.555815665194057	9.367444639603335	-31.63985181830729	4.419721181828113	44.82565598043417	0	0
28.45	3.225497530576273e-26	-9.324217675813088e-26	-7.841062564748237e-26	4.142459305296619e-28	0.93	3.82777205425584e-27	-1.030643246331153e-39	-2.141212020482328e-24	0	2.929595764089097e-15	5.113109182921597e-17	-1.005763886661042e-18	3.389880036902522e-25	-7.62205168936873e-24	-8.982598734784467e-25	-1.347843491483789e-38	1.396931618538318e-25	2.924924465433759e-15	5.104970357776094e-17	5.175254268621757e-19	-1.312561550288656e-25	-9.990317893105617e-25	-1.039837662566416e-25	-9.602949648156301e-25	9.96447451734054e-26	-6.447385365416972e-22	2.561036158865335e-16	3.249964714509938e-17	2.93224361857882e-15	2.932243725615331e-15	-8.946690208509114e-25	3.425678175510642e-25	4.567991942683139	8.182844028007473	-32.1415692414292	4.166529783016262	44.82605598579773	-2.672766563772966e-25	1.960141863732108e-26
28.46666666666667	5.061369304063369e-26	-1.110191592890182e-21	1.382306731977848e-25	2.465051803066442e-24	0.93	2.527525157295612e-24	2.004841426307911e-45	-8.292532412787892e-21	0	0	-7.105067322425604e-19	4.021828684446571e-17	5.526693041979267e-25	-3.754173984175622e-23	-8.734234484372933e-22	-3.786442530638153e-37	-1.403579649423153e-22	0	-7.105081448481138e-19	-6.197753917758463e-16	2.255482946723405e-24	1.270880379306298e-22	8.905213903860833e-27	1.062552232766649e-23	1.708574897180906e-26	-1.138326445597595e-23	-6.77409896240268e-16	7.70580834544958e-16	0	0	1.485747558277328e-22	1.119905306447966e-21	4.58523525317172	6.979446850923745	-32.67050276412792	3.881184665662097	44.82645697695673	1.667141961201275e-22	5.802804082463863e-22
28.48333333333333	0	0	0	0	0.93	0	0	0	0	0	0	0	0	0	0	0	0	0	0	0	0	0	0	0	0	0	0	0	0	0	0	0	4.559286627799971	5.792792550926624	-33.14937514420117	3.696975292031135	44.82685137201507	0	0
28.5	0	0	0	0	0.93	0	0	0	0	1.201779696902593e-39	0	0	0	0	0	0	0	1.201779696902593e-39	0	0	0	0	0	0	0	0	0	0	3.804600641694664e-40	0	0	0	4.517442392622353	4.572491843325517	-33.53095162756986	3.617264822433606	44.8272428517289	0	0
28.51666666666667	0	0	0	0	0.93	0	0	0	0	0	-1.321622653483673e-39	0	0	0	0	0	0	1.192312525224084e-40	0	0	0	0	0	0	0	0	0	0	0	0	0	0	4.467779871605929	3.283506444550632	-33.84385465912802	3.590746581314877	44.82762740662303	0	0
